<?xml version="1.0" standalone="no"?>
<!DOCTYPE svg PUBLIC "-//W3C//DTD SVG 20010904//EN"
 "http://www.w3.org/TR/2001/REC-SVG-20010904/DTD/svg10.dtd">
<svg version="1.0" xmlns="http://www.w3.org/2000/svg"
 width="512.000000pt" height="512.000000pt" viewBox="0 0 512.000000 512.000000"
 preserveAspectRatio="xMidYMid meet">
<metadata>
Created by potrace 1.14, written by Peter Selinger 2001-2017
</metadata>
<g transform="translate(0.000000,512.000000) scale(0.100000,-0.100000)"
fill="#000000" stroke="none">
<path d="M1000 4923 c0 -5 -16 -10 -35 -11 -57 -3 -65 -5 -65 -16 0 -6 -4 -5
-9 3 -7 10 -13 11 -31 1 -12 -6 -28 -9 -36 -6 -8 3 -14 0 -14 -5 0 -6 -9 -9
-20 -6 -11 3 -23 1 -26 -4 -3 -5 -14 -9 -25 -9 -10 0 -19 -3 -19 -7 0 -5 -10
-9 -23 -10 -12 0 -40 -9 -62 -19 -22 -10 -43 -17 -47 -16 -5 1 -8 -2 -8 -7 0
-5 -12 -14 -27 -20 -65 -26 -127 -73 -115 -87 4 -4 1 -4 -5 0 -8 4 -40 -20
-83 -64 -39 -38 -69 -70 -66 -70 3 0 -4 -12 -17 -26 -12 -14 -22 -30 -22 -35
0 -5 -7 -14 -15 -19 -8 -5 -11 -10 -6 -10 6 0 1 -7 -10 -15 -10 -8 -15 -15
-11 -15 5 0 -1 -13 -13 -30 -12 -16 -18 -30 -13 -30 4 0 2 -4 -4 -8 -7 -5 -14
-20 -15 -34 -1 -15 -5 -25 -9 -22 -6 3 -23 -45 -20 -54 1 -1 -5 -15 -13 -31
-9 -16 -12 -31 -9 -34 3 -4 1 -12 -4 -19 -6 -7 -13 -34 -16 -61 -3 -26 -8 -51
-11 -55 -3 -5 -7 -50 -10 -100 -3 -51 -8 -97 -11 -102 -3 -6 -2 -10 4 -10 7 0
7 -8 2 -22 -4 -13 -9 -61 -9 -108 -1 -47 -2 -87 -3 -90 -1 -3 0 -9 1 -15 2
-12 2 -205 -1 -220 -1 -5 0 -14 1 -20 2 -12 2 -205 -1 -220 -1 -5 0 -14 1 -20
2 -12 2 -205 -1 -220 -1 -5 0 -14 1 -20 2 -12 2 -205 -1 -220 -1 -5 0 -14 1
-20 2 -12 2 -205 -1 -220 -1 -5 0 -14 1 -20 2 -12 2 -205 -1 -220 -1 -5 0 -14
1 -20 2 -12 2 -205 -1 -220 -1 -5 0 -14 1 -20 2 -12 2 -205 -1 -220 -1 -5 0
-14 1 -20 2 -12 2 -205 -1 -220 -1 -5 0 -14 1 -20 1 -5 2 -41 2 -80 0 -38 3
-87 7 -107 6 -23 5 -40 -2 -47 -8 -8 -8 -11 1 -11 6 0 9 -6 7 -12 -5 -13 6
-135 20 -228 4 -25 13 -57 21 -71 7 -15 10 -29 7 -32 -3 -4 0 -13 7 -22 7 -9
10 -18 7 -22 -4 -3 1 -12 11 -20 10 -9 11 -11 2 -7 -13 7 -13 5 -1 -9 7 -9 11
-17 7 -17 -6 0 43 -99 54 -110 3 -3 12 -18 20 -35 8 -16 18 -32 21 -35 3 -3
17 -22 31 -43 27 -40 118 -140 131 -144 4 -2 17 -12 29 -22 11 -11 25 -18 30
-15 4 3 8 -2 8 -11 0 -9 12 -18 30 -22 17 -3 30 -9 30 -13 0 -8 125 -66 165
-76 17 -4 35 -9 40 -13 6 -3 19 -7 30 -8 10 -2 22 -7 25 -11 3 -4 16 -8 30 -8
38 -2 87 -11 99 -19 6 -3 11 0 11 7 0 8 3 9 8 3 10 -15 27 -16 252 -16 212 0
226 1 248 14 6 5 12 4 12 -2 0 -7 8 -7 25 -1 14 5 29 9 33 8 8 -1 59 10 82 19
8 4 22 7 30 8 24 3 74 17 85 25 6 3 33 15 60 25 28 10 57 24 66 31 9 8 19 11
22 7 4 -3 7 -1 7 5 0 6 9 14 21 17 24 8 31 13 118 95 35 33 67 60 72 60 5 0 8
3 6 8 -1 4 8 17 21 30 12 12 20 27 17 32 -4 6 2 10 11 10 10 0 15 3 11 6 -3 3
3 15 13 27 11 11 17 23 15 27 -3 5 2 11 11 14 8 3 13 10 10 15 -4 5 -1 15 6
23 7 7 14 20 16 28 2 8 9 18 15 22 8 5 7 8 -3 8 -13 1 -13 2 1 13 9 7 15 23
14 35 -1 13 3 26 10 28 11 5 13 11 17 54 1 11 6 20 11 20 4 0 6 4 2 9 -3 5 -1
12 4 16 5 3 9 13 9 23 0 9 3 31 7 47 3 17 8 46 10 65 1 19 4 35 5 35 1 0 4 23
5 50 2 28 4 50 5 50 1 0 3 17 5 37 1 24 -1 35 -8 31 -6 -4 -7 -1 -2 8 14 21
15 59 2 59 -8 0 -8 3 -2 8 14 10 16 74 2 65 -6 -4 -7 -1 -2 8 13 20 13 49 1
49 -7 0 -8 3 -1 8 13 9 15 102 2 102 -5 0 -5 5 1 13 12 14 11 35 -2 56 -6 9
-5 12 1 8 6 -4 10 6 9 23 -1 17 -5 30 -11 30 -6 0 -6 3 0 8 14 9 14 95 1 104
-7 5 -7 8 -1 8 6 0 10 16 11 35 0 22 -3 32 -10 28 -8 -5 -8 -2 -1 8 9 12 11
31 6 65 -2 16 -39 24 -45 10 -2 -6 -5 -6 -5 -1 -1 14 -749 11 -763 -3 -14 -14
-18 -84 -6 -99 6 -7 6 -13 1 -13 -11 0 -9 -182 2 -200 5 -8 4 -11 -2 -7 -12 8
-12 -41 0 -60 5 -7 4 -13 0 -13 -10 0 -10 -171 1 -188 4 -6 3 -12 -1 -12 -11
0 -9 -183 2 -200 6 -9 4 -11 -5 -5 -10 6 -12 4 -7 -8 3 -10 3 -17 -1 -17 -4 0
-8 -10 -9 -22 -4 -44 -15 -88 -23 -88 -8 0 -25 -49 -21 -63 1 -5 -3 -6 -8 -2
-6 3 -15 -4 -21 -16 -7 -11 -14 -18 -17 -15 -3 3 -14 -6 -25 -19 -11 -14 -26
-25 -34 -25 -8 0 -14 -4 -14 -8 0 -4 -12 -9 -27 -10 -15 -1 -29 -6 -32 -10 -7
-10 -74 -8 -116 2 -16 4 -41 16 -56 27 -15 10 -35 19 -45 19 -9 0 -15 3 -11 6
3 3 -2 14 -11 23 -35 37 -61 75 -56 83 3 4 0 8 -7 8 -7 0 -10 3 -6 6 3 4 0 19
-8 34 -8 15 -16 46 -17 69 -2 22 -6 41 -9 41 -4 0 -5 17 -2 38 3 20 4 48 3 62
-1 14 -2 39 -1 55 0 17 0 44 0 60 -1 17 -1 44 0 60 1 57 0 80 -2 105 -2 14 1
33 5 43 5 10 5 17 0 17 -11 0 -9 51 2 69 4 6 2 11 -5 11 -8 0 -8 4 1 15 7 9 8
15 2 15 -6 0 -8 17 -5 42 4 41 4 70 -1 113 -1 11 2 26 7 33 6 7 6 12 0 12 -11
0 -11 50 0 68 5 6 4 12 0 12 -10 0 -9 53 2 69 3 6 2 11 -2 11 -11 0 -10 50 0
68 5 6 5 12 0 12 -10 0 -9 112 1 128 3 6 2 13 -3 17 -5 3 -7 15 -5 28 3 12 5
36 4 52 -1 17 -1 44 -1 60 0 17 0 44 0 60 -1 17 -1 44 0 60 0 17 0 44 0 60 0
17 0 44 0 60 1 35 0 73 -3 130 -1 22 3 46 8 53 5 7 5 12 -1 12 -11 0 -11 50 0
68 5 6 4 12 0 12 -10 0 -9 53 2 69 3 6 2 11 -2 11 -11 0 -10 50 0 68 5 6 5 12
0 12 -4 0 -7 35 -5 77 1 43 2 92 1 108 0 17 -1 44 0 60 1 57 0 80 -2 105 -2
14 1 33 5 43 5 10 5 17 0 17 -11 0 -9 51 2 69 4 6 2 11 -5 11 -8 0 -8 4 1 15
7 9 8 15 2 15 -6 0 -8 17 -5 43 2 23 4 53 3 67 -6 86 -5 117 3 134 7 14 6 16
-4 11 -8 -6 -10 -4 -3 6 4 8 9 27 10 43 2 16 6 41 10 55 4 14 7 29 6 34 -1 4
3 7 9 7 5 0 7 5 4 10 -3 6 -1 10 4 10 6 0 11 3 10 8 -3 19 15 52 28 52 8 0 12
4 9 9 -6 9 50 70 66 72 4 1 13 2 18 3 6 0 15 7 19 15 5 7 14 10 20 7 6 -4 11
-3 11 3 0 13 130 8 158 -7 12 -7 22 -9 22 -5 0 4 4 2 9 -5 4 -7 18 -14 29 -15
12 -1 22 -5 22 -11 0 -19 52 -76 63 -70 7 4 9 4 5 0 -7 -9 24 -102 40 -118 7
-7 7 -19 2 -34 -6 -14 -6 -24 -1 -24 5 0 8 -23 6 -50 -3 -34 0 -48 7 -44 7 4
8 2 4 -4 -13 -22 -16 -55 -5 -69 7 -7 7 -13 2 -13 -11 0 -9 -182 2 -200 5 -8
4 -11 -2 -7 -12 8 -12 -41 0 -60 5 -7 4 -13 -1 -13 -10 0 -8 -112 2 -128 3 -6
1 -12 -5 -14 -9 -3 -9 -9 -1 -25 13 -23 56 -35 71 -20 8 8 11 8 11 1 0 -6 7
-11 15 -11 8 0 15 4 15 9 0 5 5 6 11 3 16 -11 69 -12 69 -2 0 4 5 5 11 1 15
-9 93 -9 107 0 7 4 12 3 12 -2 0 -9 64 -7 80 3 6 3 10 3 10 -2 0 -9 124 -8
139 2 6 3 11 2 11 -3 0 -5 7 -9 15 -9 8 0 15 4 15 9 0 5 5 6 11 3 16 -11 69
-12 69 -2 0 4 5 5 11 1 14 -8 97 -9 105 -1 3 3 12 3 20 0 8 -3 14 1 15 8 0 8
2 26 3 42 1 15 -3 27 -9 27 -7 0 -7 3 0 8 13 9 15 102 2 102 -5 0 -5 5 1 13
12 14 11 35 -2 56 -6 9 -5 12 1 8 6 -4 10 6 9 23 -1 17 -5 30 -11 30 -6 0 -6
3 0 8 14 9 14 95 1 104 -7 5 -7 8 -1 8 6 0 10 16 11 35 0 20 -3 32 -9 28 -6
-4 -7 -1 -1 8 12 19 13 70 1 93 -6 12 -6 16 1 12 6 -4 10 2 9 14 -1 11 -4 20
-8 20 -4 0 -7 21 -7 48 1 34 -2 46 -12 44 -9 -2 -11 1 -4 10 14 19 11 36 -17
106 -5 14 -5 21 0 18 5 -3 4 10 -2 29 -6 19 -13 35 -17 35 -4 0 -6 13 -5 30 1
16 -2 27 -7 24 -7 -5 -12 11 -5 19 1 2 -6 15 -16 30 -9 15 -14 27 -11 27 4 0
-1 9 -11 20 -10 11 -14 20 -9 20 5 0 2 6 -6 13 -8 7 -17 21 -18 32 -2 11 -8
22 -13 23 -5 2 -9 8 -9 13 0 6 -11 22 -25 37 -14 15 -28 37 -31 50 -4 12 -9
22 -13 22 -13 0 -71 58 -71 70 0 8 -3 11 -6 7 -4 -3 -15 4 -25 16 -10 12 -18
19 -19 15 0 -4 -12 4 -26 17 -15 14 -35 25 -45 25 -10 0 -21 9 -24 21 -4 11
-9 18 -12 15 -4 -3 -20 3 -38 14 -18 11 -35 17 -38 13 -4 -3 -7 -1 -7 5 0 7
-9 12 -20 12 -11 0 -20 5 -20 10 0 6 -11 10 -24 10 -14 0 -28 5 -31 10 -3 6
-11 10 -16 10 -6 0 -7 -5 -3 -11 3 -6 -4 -4 -17 4 -13 9 -35 18 -49 21 -45 9
-65 14 -84 22 -15 6 -17 4 -11 -7 7 -11 6 -12 -6 -2 -8 6 -34 12 -59 14 -25 1
-49 5 -55 8 -17 10 -75 7 -75 -4 0 -7 -3 -7 -8 0 -10 14 -62 15 -62 1 0 -7 -3
-7 -8 -1 -4 6 -14 10 -22 10 -8 0 -18 -4 -22 -10 -5 -7 -8 -6 -8 1 0 11 -125
12 -137 1 -3 -4 -12 -2 -20 4 -7 6 -13 7 -13 2z"/>
<path d="M3664 4921 c-5 -5 -29 -11 -54 -14 -25 -3 -58 -8 -75 -12 -16 -3 -36
-6 -42 -7 -7 -1 -13 -4 -13 -8 0 -3 -8 -6 -17 -7 -10 -1 -25 -3 -33 -6 -8 -2
-27 -7 -42 -12 -16 -4 -28 -10 -28 -14 0 -4 -9 -8 -20 -9 -42 -4 -50 -6 -50
-12 0 -3 -16 -12 -35 -19 -19 -7 -35 -16 -35 -20 0 -8 -36 -22 -43 -18 -6 4
-34 -29 -30 -35 2 -5 -3 -8 -11 -8 -9 0 -16 -5 -16 -12 0 -6 -3 -9 -6 -5 -3 3
-26 -14 -51 -39 -25 -24 -50 -44 -55 -44 -5 0 -6 -4 -3 -10 3 -5 -1 -10 -9
-10 -9 0 -15 -4 -14 -9 2 -5 -7 -18 -20 -29 -13 -11 -23 -23 -23 -26 3 -19 0
-29 -5 -23 -8 8 -44 -55 -37 -65 2 -5 -1 -8 -8 -8 -7 0 -9 -3 -6 -7 4 -3 0
-14 -9 -24 -8 -9 -17 -23 -19 -31 -8 -35 -18 -58 -24 -58 -4 0 -8 -6 -9 -12
-1 -15 -10 -52 -12 -55 -2 -2 -3 -11 -5 -20 -1 -10 -6 -29 -12 -43 -6 -14 -9
-28 -6 -32 2 -5 0 -8 -6 -8 -6 0 -11 -15 -11 -32 0 -52 -3 -68 -10 -68 -3 0
-6 -30 -6 -66 1 -36 -2 -68 -5 -70 -4 -2 -6 -26 -4 -54 1 -27 -2 -50 -7 -50
-5 0 -6 -5 -2 -11 10 -17 12 -109 2 -109 -5 0 -6 -5 -2 -11 10 -17 11 -102 1
-116 -5 -7 -6 -13 -1 -13 5 0 9 -32 9 -70 0 -39 -4 -70 -8 -70 -5 0 -5 -5 -1
-11 10 -16 11 -149 2 -149 -5 0 -5 -8 -1 -17 10 -23 10 -134 -1 -151 -4 -6 -4
-12 1 -12 4 0 8 -22 8 -50 0 -27 -3 -50 -8 -50 -4 0 -5 -5 -1 -11 10 -17 12
-109 2 -109 -5 0 -6 -5 -2 -11 10 -17 12 -109 2 -109 -5 0 -6 -5 -2 -11 10
-17 11 -102 1 -116 -5 -7 -6 -13 -1 -13 11 0 11 -131 0 -148 -4 -7 -4 -12 1
-12 4 0 8 -23 8 -50 0 -28 -3 -50 -8 -50 -4 0 -5 -5 -1 -11 10 -17 12 -109 2
-109 -5 0 -6 -5 -2 -11 10 -17 12 -109 2 -109 -5 0 -6 -5 -2 -11 10 -17 11
-102 1 -117 -5 -6 -6 -12 -1 -12 5 0 9 -32 9 -70 0 -39 -4 -70 -8 -70 -5 0 -5
-5 -1 -11 10 -16 11 -149 2 -149 -5 0 -5 -8 -1 -17 10 -23 10 -134 -1 -151 -4
-6 -4 -12 1 -12 4 0 8 -22 8 -50 0 -27 -3 -50 -8 -50 -4 0 -5 -5 -1 -11 10
-17 12 -109 2 -109 -5 0 -4 -9 2 -20 6 -10 11 -49 11 -85 1 -36 4 -65 8 -65 4
0 8 -10 8 -22 5 -86 9 -108 20 -112 7 -3 10 -12 7 -20 -3 -8 -2 -21 2 -28 5
-7 10 -22 11 -33 2 -11 8 -22 13 -23 6 -2 8 -7 5 -12 -3 -5 0 -21 7 -37 6 -15
12 -30 13 -33 19 -48 31 -70 38 -70 4 0 5 -5 2 -10 -3 -6 -1 -10 5 -10 6 0 8
-4 5 -10 -3 -5 -1 -10 6 -10 7 0 9 -3 6 -6 -4 -4 3 -15 14 -25 11 -9 19 -19
18 -21 -5 -6 35 -68 44 -68 4 0 5 -5 2 -10 -3 -6 1 -10 9 -10 9 0 16 -7 16
-17 0 -9 3 -14 6 -11 5 6 54 -38 54 -49 0 -6 53 -49 57 -45 2 1 13 -7 25 -18
12 -11 26 -20 31 -20 4 0 28 -14 52 -30 24 -16 49 -30 55 -30 6 0 21 -6 33
-14 12 -8 37 -17 55 -19 18 -3 40 -11 48 -17 7 -7 14 -10 14 -6 0 3 11 1 26
-4 27 -11 69 -19 124 -25 19 -2 35 -5 35 -6 0 -6 77 -9 265 -9 183 0 265 3
265 10 0 1 16 3 35 5 19 3 46 7 60 10 14 3 36 8 50 11 13 3 29 9 36 15 6 5 14
6 17 3 3 -4 14 -3 24 1 10 5 20 9 23 10 3 1 22 6 43 13 21 6 62 26 90 44 28
18 54 33 57 33 14 0 81 55 137 111 34 34 64 59 67 56 3 -3 6 0 6 6 0 7 0 14 0
17 0 3 8 13 18 23 32 35 52 62 44 62 -4 0 1 5 11 11 9 6 15 14 12 20 -4 5 -3
9 2 9 9 0 49 91 45 103 -1 4 2 7 7 7 5 0 11 12 14 27 5 24 26 94 44 143 9 24
13 42 18 85 3 22 6 50 8 62 1 12 5 25 9 28 3 3 4 19 2 36 -3 21 0 28 8 23 7
-5 8 -3 3 6 -12 20 -13 64 -1 72 7 5 7 8 -2 8 -8 0 -10 5 -5 12 12 20 13 219
0 211 -6 -4 -7 -1 -1 8 13 21 14 160 1 152 -6 -4 -7 -1 -1 8 13 21 14 160 1
152 -6 -4 -7 -1 -1 8 13 21 14 160 1 152 -6 -4 -7 -1 -1 8 13 21 14 160 1 152
-6 -4 -7 -1 -1 8 13 21 14 160 1 152 -6 -4 -7 -1 -1 8 13 21 14 160 1 152 -6
-4 -7 -1 -1 8 14 22 14 160 0 152 -8 -5 -8 -3 0 8 15 19 13 208 -3 234 -6 11
-15 17 -19 13 -4 -5 -13 -3 -21 3 -8 7 -13 8 -13 1 0 -6 -13 -7 -34 -2 -19 4
-40 4 -47 -1 -7 -4 -19 -3 -26 3 -7 6 -13 7 -13 2 0 -5 -96 -7 -216 -4 -119 3
-221 2 -227 -2 -6 -4 -17 -2 -24 4 -9 7 -13 7 -13 0 0 -6 -13 -7 -34 -2 -19 4
-40 4 -47 -1 -7 -4 -19 -3 -26 3 -9 7 -13 7 -13 0 0 -6 -13 -7 -34 -2 -19 4
-40 4 -47 -1 -7 -4 -19 -3 -26 3 -9 7 -13 7 -13 0 0 -6 -13 -7 -34 -2 -19 4
-40 4 -47 -1 -7 -4 -19 -3 -26 3 -9 7 -13 7 -13 0 0 -6 -13 -7 -34 -2 -18 4
-41 3 -50 -2 -10 -6 -16 -5 -16 2 0 8 -6 8 -20 0 -10 -6 -25 -9 -32 -8 -10 2
-14 -64 -16 -326 -2 -343 -2 -349 40 -341 10 2 18 -1 18 -8 0 -8 3 -8 11 0 8
8 20 8 36 2 15 -5 22 -5 18 0 -3 6 4 9 15 8 11 -1 20 -5 20 -10 0 -4 6 -5 13
0 18 11 81 10 89 -2 5 -6 8 -5 8 4 0 10 3 11 13 3 7 -6 18 -7 26 -3 17 11 48
3 55 -15 3 -8 2 -14 -2 -14 -9 0 -7 -83 2 -98 4 -7 4 -12 -1 -12 -9 0 -8 -103
1 -119 4 -6 4 -11 -1 -11 -10 0 -9 -82 1 -98 4 -7 4 -12 -1 -12 -9 0 -8 -103
1 -119 4 -6 4 -11 -1 -11 -9 0 -8 -414 2 -430 3 -5 2 -10 -2 -10 -5 0 -8 -17
-7 -37 1 -21 -2 -44 -8 -51 -8 -8 -7 -12 3 -12 12 0 12 -2 0 -9 -7 -5 -11 -15
-9 -22 3 -8 -1 -20 -9 -27 -7 -7 -13 -22 -13 -31 0 -10 -7 -24 -15 -31 -8 -7
-15 -16 -15 -20 0 -13 -68 -79 -74 -73 -3 4 -6 2 -6 -4 0 -9 -54 -39 -56 -31
0 1 -9 -4 -19 -12 -17 -14 -115 -23 -115 -10 0 3 -11 7 -24 8 -60 5 -155 85
-188 159 -26 57 -26 55 -39 164 -9 77 -7 2731 2 2782 2 9 6 17 10 17 4 0 9 9
12 20 3 11 1 18 -4 15 -14 -9 27 74 50 100 11 14 18 25 13 25 -4 0 1 5 11 11
9 6 14 15 11 21 -4 6 -3 8 3 5 6 -4 16 0 23 8 7 8 20 15 29 15 9 0 21 4 27 10
5 5 18 11 29 13 11 1 25 5 30 8 16 9 85 10 85 1 0 -4 10 -8 23 -10 32 -2 97
-30 97 -41 0 -6 9 -13 20 -16 11 -3 20 -13 20 -20 0 -8 6 -18 14 -22 17 -9 66
-110 66 -135 0 -9 6 -19 13 -21 9 -4 9 -6 -1 -6 -9 -1 -10 -6 -3 -18 5 -10 9
-143 9 -296 1 -152 4 -282 7 -287 4 -6 10 -8 15 -5 5 3 11 1 15 -5 4 -7 12 -7
24 0 10 5 21 7 24 4 11 -11 57 -11 57 0 0 7 3 7 8 1 4 -5 14 -10 22 -10 8 0
18 5 22 10 5 6 8 5 8 -3 0 -9 5 -10 19 -3 10 6 21 8 24 5 10 -11 67 -10 67 0
0 7 3 8 8 1 8 -12 32 -13 50 -2 6 5 12 4 12 0 0 -5 9 -9 20 -9 11 0 20 4 20 9
0 5 6 5 13 -1 8 -7 18 -7 27 -2 8 5 21 5 30 0 9 -5 22 -5 30 0 8 5 18 6 23 3
14 -9 68 -10 73 -1 3 4 14 3 25 -2 14 -8 19 -7 19 1 0 9 3 9 14 0 10 -8 16 -9
21 -1 4 7 12 7 26 0 13 -8 19 -7 19 0 0 7 6 8 19 0 12 -6 22 -6 25 -1 3 5 15
7 26 4 23 -6 22 -12 25 114 2 62 -1 91 -8 86 -6 -4 -7 -1 -1 8 13 21 14 160 1
152 -6 -4 -7 -1 -1 8 14 22 14 110 0 102 -7 -4 -6 -1 1 9 7 8 9 18 5 22 -10
11 -9 30 3 38 6 5 6 8 -2 8 -8 0 -11 13 -9 35 2 19 0 37 -4 40 -4 3 -7 23 -6
45 1 22 -2 40 -7 40 -5 0 -7 9 -4 20 3 11 2 20 -2 20 -4 0 -7 8 -8 18 -3 40
-8 62 -13 62 -5 0 -10 22 -13 63 -1 9 -5 17 -9 17 -4 0 -7 3 -6 8 1 4 -6 24
-15 46 -9 21 -17 44 -17 50 0 7 -4 16 -9 22 -5 5 -21 32 -36 59 -15 28 -34 57
-43 65 -10 9 -18 21 -19 27 -1 6 -18 29 -38 50 -19 21 -35 41 -35 46 0 4 -7 7
-16 7 -8 0 -12 5 -9 10 3 6 -1 10 -9 10 -9 0 -16 4 -16 8 0 5 -21 24 -47 42
-27 19 -50 36 -53 39 -8 10 -144 76 -155 76 -5 0 -12 2 -15 5 -3 3 -15 11 -27
18 -19 10 -23 10 -23 0 0 -9 -3 -8 -10 2 -5 8 -10 11 -10 6 0 -5 -6 -4 -13 2
-7 6 -24 13 -37 16 -14 3 -36 8 -50 11 -14 3 -41 8 -60 11 -80 12 -94 15 -103
21 -6 4 -7 1 -2 -6 6 -10 3 -11 -14 -2 -16 9 -21 9 -21 -1 0 -8 -3 -9 -8 -3
-8 13 -121 13 -141 0 -9 -5 -12 -4 -8 2 8 13 -115 11 -125 -2 -5 -6 -8 -6 -8
1 0 7 -15 11 -35 10 -19 0 -35 -5 -35 -10 0 -5 -6 -4 -13 3 -8 6 -17 7 -23 2z"/>
</g>
</svg>
